<?xml version="1.0" encoding="UTF-8"?>
<svg id="Calque_1" data-name="Calque 1" xmlns="http://www.w3.org/2000/svg" viewBox="0 0 2022.26 306.4">
  <defs>
    <style>
      .cls-1 {
        fill: none;
      }

      .cls-2 {
        fill: #008db1;
      }

      .cls-3 {
        fill: #00a3bd;
      }

      .cls-4 {
        fill: #0072a0;
      }

      .cls-5 {
        fill: #0094b5;
      }

      .cls-6 {
        fill: #0096b5;
      }

      .cls-7 {
        fill: #006a9b;
      }

      .cls-8 {
        fill: #0097b6;
      }

      .cls-9 {
        fill: #007ea7;
      }

      .cls-10 {
        fill: #006e9d;
      }

      .cls-11 {
        fill: #0076a2;
      }

      .cls-12 {
        fill: #007ba5;
      }

      .cls-13 {
        fill: #00aec2;
      }

      .cls-14 {
        fill: #0089ae;
      }

      .cls-15 {
        fill: #0085ab;
      }

      .cls-16 {
        fill: #0092b4;
      }

      .cls-17 {
        fill: #02afc2;
      }

      .cls-18 {
        fill: #0082aa;
      }

      .cls-19 {
        fill: #0084ab;
      }

      .cls-20 {
        fill: #0083aa;
      }

      .cls-21 {
        fill: #007ca6;
      }

      .cls-22 {
        fill: #006a9a;
      }

      .cls-23 {
        fill: #008aaf;
      }

      .cls-24 {
        fill: #00a7be;
      }

      .cls-25 {
        fill: #006d9c;
      }

      .cls-26 {
        fill: #00adc1;
      }

      .cls-27 {
        fill: #00709f;
      }

      .cls-28 {
        fill: #0077a3;
      }

      .cls-29 {
        fill: #0087ad;
      }

      .cls-30 {
        fill: #00a0bb;
      }

      .cls-31 {
        fill: #0098b7;
      }

      .cls-32 {
        fill: #00a1bc;
      }

      .cls-33 {
        fill: #009cb9;
      }

      .cls-34 {
        fill: #00a5bd;
      }

      .cls-35 {
        fill: #026194;
      }

      .cls-36 {
        fill: #006496;
      }

      .cls-37 {
        fill: #0099b7;
      }

      .cls-38 {
        fill: #00699a;
      }

      .cls-39 {
        fill: #0083ab;
      }

      .cls-40 {
        fill: #009fbb;
      }

      .cls-41 {
        fill: #0096b6;
      }

      .cls-42 {
        fill: #0091b2;
      }

      .cls-43 {
        fill: #006c9c;
      }

      .cls-44 {
        fill: #00acc1;
      }

      .cls-45 {
        fill: #006899;
      }

      .cls-46 {
        fill: #006799;
      }

      .cls-47 {
        fill: #006b9b;
      }

      .cls-48 {
        fill: #0090b2;
      }

      .cls-49 {
        fill: #0079a4;
      }

      .cls-50 {
        clip-path: url(#clippath-1);
      }

      .cls-51 {
        clip-path: url(#clippath-3);
      }

      .cls-52 {
        clip-path: url(#clippath-2);
      }

      .cls-53 {
        fill: #008fb1;
      }

      .cls-54 {
        fill: #0088ad;
      }

      .cls-55 {
        fill: #0094b4;
      }

      .cls-56 {
        fill: #009db9;
      }

      .cls-57 {
        fill: #0081a9;
      }

      .cls-58 {
        fill: #006597;
      }

      .cls-59 {
        fill: #00a4bd;
      }

      .cls-60 {
        fill: #00719f;
      }

      .cls-61 {
        fill: #0092b3;
      }

      .cls-62 {
        fill: #009bb8;
      }

      .cls-63 {
        fill: #00a2bc;
      }

      .cls-64 {
        fill: #036094;
      }

      .cls-65 {
        fill: #009ab8;
      }

      .cls-66 {
        fill: #007da7;
      }

      .cls-67 {
        fill: #0085ac;
      }

      .cls-68 {
        fill: #009eba;
      }

      .cls-69 {
        fill: #0093b4;
      }

      .cls-70 {
        fill: #0078a4;
      }

      .cls-71 {
        fill: #006798;
      }

      .cls-72 {
        fill: #006396;
      }

      .cls-73 {
        fill: #02afc3;
      }

      .cls-74 {
        fill: #01aec2;
      }

      .cls-75 {
        fill: #0080a9;
      }

      .cls-76 {
        fill: #009bb9;
      }

      .cls-77 {
        fill: #00a7bf;
      }

      .cls-78 {
        fill: #00aac0;
      }

      .cls-79 {
        fill: #00abc1;
      }

      .cls-80 {
        fill: #00a9bf;
      }

      .cls-81 {
        fill: #00adc2;
      }

      .cls-82 {
        fill: #035f93;
      }

      .cls-83 {
        fill: #008eb1;
      }

      .cls-84 {
        fill: #0073a0;
      }

      .cls-85 {
        fill: #006f9e;
      }

      .cls-86 {
        fill: #00a9c0;
      }

      .cls-87 {
        fill: #00a3bc;
      }

      .cls-88 {
        fill: #008fb2;
      }

      .cls-89 {
        fill: #00a6be;
      }

      .cls-90 {
        fill: #007aa5;
      }

      .cls-91 {
        fill: #0074a1;
      }

      .cls-92 {
        fill: #006d9d;
      }

      .cls-93 {
        fill: #00a5be;
      }

      .cls-94 {
        fill: #008baf;
      }

      .cls-95 {
        fill: #009fba;
      }

      .cls-96 {
        fill: #006698;
      }

      .cls-97 {
        fill: #006497;
      }

      .cls-98 {
        fill: #0091b3;
      }

      .cls-99 {
        fill: #008cb0;
      }

      .cls-100 {
        fill: #0095b5;
      }

      .cls-101 {
        fill: #0075a2;
      }

      .cls-102 {
        fill: #016295;
      }

      .cls-103 {
        fill: #007fa8;
      }

      .cls-104 {
        clip-path: url(#clippath);
      }

      .cls-105 {
        fill: #016195;
      }

      .cls-106 {
        fill: #008db0;
      }

      .cls-107 {
        fill: #343434;
      }

      .cls-108 {
        fill: #0086ac;
      }

      .cls-109 {
        fill: #00a8bf;
      }
    </style>
    <clipPath id="clippath">
      <path class="cls-1" d="M19.43,6.87C8.7,6.87,0,15.57,0,26.3v253.8c0,10.73,8.7,19.43,19.43,19.43h20.93c10.73,0,19.42-8.7,19.42-19.43V26.3c0-10.73-8.69-19.43-19.42-19.43h-20.93Z"/>
    </clipPath>
    <clipPath id="clippath-1">
      <rect class="cls-1" x="-118.87" y="107.07" width="297.52" height="92.27" transform="translate(-125.7 165.7) rotate(-83.55)"/>
    </clipPath>
    <clipPath id="clippath-2">
      <path class="cls-1" d="M425.99,8.41c-7.54,0-14.78,3-20.11,8.33l-65.1,65.22,37.24,38,33.97-33.53c2.78-2.74,7.49-.77,7.49,3.14v133.28c0,3.92-4.74,5.89-7.51,3.11L202.61,16.73c-5.33-5.32-12.56-8.32-20.11-8.32h-38.14c-9.93,0-17.97,8.05-17.97,17.98v255.16c0,9.93,8.05,17.98,17.97,17.98h32.34c7.52,0,13.71-1.54,20.07-8.3l61.63-62.13-37.36-37.78-28.63,28.67c-2.78,2.78-7.52.81-7.52-3.11v-124.71c0-3.92,4.74-5.89,7.52-3.11l202.05,202.13c5.33,5.33,12.57,8.33,20.11,8.33h45.75c9.93,0,17.97-8.05,17.97-17.98V26.39c0-9.93-8.05-17.98-17.97-17.98h-34.32Z"/>
    </clipPath>
    <clipPath id="clippath-3">
      <rect class="cls-1" x="137.94" y="-37.21" width="328.79" height="382.36" transform="translate(115.39 437.1) rotate(-83.55)"/>
    </clipPath>
  </defs>
  <g class="cls-104">
    <g class="cls-50">
      <polygon class="cls-82" points="-32.66 299.47 26.87 306.2 -32.66 306.2 -32.66 299.47"/>
      <polygon class="cls-82" points="-32.66 293.35 81.08 306.2 26.87 306.2 -32.66 299.47 -32.66 293.35"/>
      <polygon class="cls-82" points="-32.66 290.96 92.44 305.1 92.44 306.2 81.08 306.2 -32.66 293.35 -32.66 290.96"/>
      <polygon class="cls-64" points="-32.66 288.57 92.44 302.71 92.44 305.1 -32.66 290.96 -32.66 288.57"/>
      <polygon class="cls-35" points="-32.66 286.19 92.44 300.32 92.44 302.71 -32.66 288.57 -32.66 286.19"/>
      <polygon class="cls-105" points="-32.66 283.8 92.44 297.94 92.44 300.32 -32.66 286.19 -32.66 283.8"/>
      <polygon class="cls-102" points="-32.66 281.41 92.44 295.55 92.44 297.94 -32.66 283.8 -32.66 281.41"/>
      <polygon class="cls-72" points="-32.66 279.03 92.44 293.16 92.44 295.55 -32.66 281.41 -32.66 279.03"/>
      <polygon class="cls-36" points="-32.66 276.64 92.44 290.78 92.44 293.16 -32.66 279.03 -32.66 276.64"/>
      <polygon class="cls-97" points="-32.66 274.25 92.44 288.39 92.44 290.78 -32.66 276.64 -32.66 274.25"/>
      <polygon class="cls-58" points="-32.66 271.87 92.44 286.01 92.44 288.39 -32.66 274.25 -32.66 271.87"/>
      <polygon class="cls-96" points="-32.66 269.48 92.44 283.62 92.44 286.01 -32.66 271.87 -32.66 269.48"/>
      <polygon class="cls-71" points="-32.66 267.09 92.44 281.23 92.44 283.62 -32.66 269.48 -32.66 267.09"/>
      <polygon class="cls-46" points="-32.66 264.71 92.44 278.85 92.44 281.23 -32.66 267.09 -32.66 264.71"/>
      <polygon class="cls-45" points="-32.66 262.32 92.44 276.46 92.44 278.85 -32.66 264.71 -32.66 262.32"/>
      <polygon class="cls-38" points="-32.66 259.94 92.44 274.07 92.44 276.46 -32.66 262.32 -32.66 259.94"/>
      <polygon class="cls-22" points="-32.66 257.55 92.44 271.69 92.44 274.07 -32.66 259.94 -32.66 257.55"/>
      <polygon class="cls-7" points="-32.66 255.16 92.44 269.3 92.44 271.69 -32.66 257.55 -32.66 255.16"/>
      <polygon class="cls-47" points="-32.66 252.78 92.44 266.91 92.44 269.3 -32.66 255.16 -32.66 252.78"/>
      <polygon class="cls-43" points="-32.66 250.39 92.44 264.53 92.44 266.91 -32.66 252.78 -32.66 250.39"/>
      <polygon class="cls-25" points="-32.66 248 92.44 262.14 92.44 264.53 -32.66 250.39 -32.66 248"/>
      <polygon class="cls-92" points="-32.66 245.62 92.44 259.76 92.44 262.14 -32.66 248 -32.66 245.62"/>
      <polygon class="cls-10" points="-32.66 243.23 92.44 257.37 92.44 259.76 -32.66 245.62 -32.66 243.23"/>
      <polygon class="cls-85" points="-32.66 240.84 92.44 254.98 92.44 257.37 -32.66 243.23 -32.66 240.84"/>
      <polygon class="cls-85" points="-32.66 238.46 92.44 252.6 92.44 254.98 -32.66 240.84 -32.66 238.46"/>
      <polygon class="cls-27" points="-32.66 236.07 92.44 250.21 92.44 252.6 -32.66 238.46 -32.66 236.07"/>
      <polygon class="cls-60" points="-32.66 233.69 92.44 247.82 92.44 250.21 -32.66 236.07 -32.66 233.69"/>
      <polygon class="cls-4" points="-32.66 231.3 92.44 245.44 92.44 247.82 -32.66 233.69 -32.66 231.3"/>
      <polygon class="cls-4" points="-32.66 228.91 92.44 243.05 92.44 245.44 -32.66 231.3 -32.66 228.91"/>
      <polygon class="cls-84" points="-32.66 226.53 92.44 240.66 92.44 243.05 -32.66 228.91 -32.66 226.53"/>
      <polygon class="cls-91" points="-32.66 224.14 92.44 238.28 92.44 240.66 -32.66 226.53 -32.66 224.14"/>
      <polygon class="cls-91" points="-32.66 221.75 92.44 235.89 92.44 238.28 -32.66 224.14 -32.66 221.75"/>
      <polygon class="cls-101" points="-32.66 219.37 92.44 233.5 92.44 235.89 -32.66 221.75 -32.66 219.37"/>
      <polygon class="cls-11" points="-32.66 216.98 92.44 231.12 92.44 233.5 -32.66 219.37 -32.66 216.98"/>
      <polygon class="cls-28" points="-32.66 214.59 92.44 228.73 92.44 231.12 -32.66 216.98 -32.66 214.59"/>
      <polygon class="cls-28" points="-32.66 212.21 92.44 226.35 92.44 228.73 -32.66 214.59 -32.66 212.21"/>
      <polygon class="cls-70" points="-32.66 209.82 92.44 223.96 92.44 226.35 -32.66 212.21 -32.66 209.82"/>
      <polygon class="cls-49" points="-32.66 207.44 92.44 221.57 92.44 223.96 -32.66 209.82 -32.66 207.44"/>
      <polygon class="cls-90" points="-32.66 205.05 92.44 219.19 92.44 221.57 -32.66 207.44 -32.66 205.05"/>
      <polygon class="cls-90" points="-32.66 202.66 92.44 216.8 92.44 219.19 -32.66 205.05 -32.66 202.66"/>
      <polygon class="cls-12" points="-32.66 200.28 92.44 214.41 92.44 216.8 -32.66 202.66 -32.66 200.28"/>
      <polygon class="cls-21" points="-32.66 197.89 92.44 212.03 92.44 214.41 -32.66 200.28 -32.66 197.89"/>
      <polygon class="cls-21" points="-32.66 195.5 92.44 209.64 92.44 212.03 -32.66 197.89 -32.66 195.5"/>
      <polygon class="cls-66" points="-32.66 193.12 92.44 207.25 92.44 209.64 -32.66 195.5 -32.66 193.12"/>
      <polygon class="cls-9" points="-32.66 190.73 92.44 204.87 92.44 207.25 -32.66 193.12 -32.66 190.73"/>
      <polygon class="cls-103" points="-32.66 188.34 92.44 202.48 92.44 204.87 -32.66 190.73 -32.66 188.34"/>
      <polygon class="cls-103" points="-32.66 185.96 92.44 200.1 92.44 202.48 -32.66 188.34 -32.66 185.96"/>
      <polygon class="cls-75" points="-32.66 183.57 92.44 197.71 92.44 200.1 -32.66 185.96 -32.66 183.57"/>
      <polygon class="cls-57" points="-32.66 181.19 92.44 195.32 92.44 197.71 -32.66 183.57 -32.66 181.19"/>
      <polygon class="cls-57" points="-32.66 178.8 92.44 192.94 92.44 195.32 -32.66 181.19 -32.66 178.8"/>
      <polygon class="cls-18" points="-32.66 176.41 92.44 190.55 92.44 192.94 -32.66 178.8 -32.66 176.41"/>
      <polygon class="cls-20" points="-32.66 174.03 92.44 188.16 92.44 190.55 -32.66 176.41 -32.66 174.03"/>
      <polygon class="cls-39" points="-32.66 171.64 92.44 185.78 92.44 188.16 -32.66 174.03 -32.66 171.64"/>
      <polygon class="cls-19" points="-32.66 169.25 92.44 183.39 92.44 185.78 -32.66 171.64 -32.66 169.25"/>
      <polygon class="cls-15" points="-32.66 166.87 92.44 181 92.44 183.39 -32.66 169.25 -32.66 166.87"/>
      <polygon class="cls-67" points="-32.66 164.48 92.44 178.62 92.44 181 -32.66 166.87 -32.66 164.48"/>
      <polygon class="cls-108" points="-32.66 162.09 92.44 176.23 92.44 178.62 -32.66 164.48 -32.66 162.09"/>
      <polygon class="cls-29" points="-32.66 159.71 92.44 173.85 92.44 176.23 -32.66 162.09 -32.66 159.71"/>
      <polygon class="cls-29" points="-32.66 157.32 92.44 171.46 92.44 173.85 -32.66 159.71 -32.66 157.32"/>
      <polygon class="cls-54" points="-32.66 154.93 92.44 169.07 92.44 171.46 -32.66 157.32 -32.66 154.93"/>
      <polygon class="cls-14" points="-32.66 152.55 92.44 166.69 92.44 169.07 -32.66 154.93 -32.66 152.55"/>
      <polygon class="cls-14" points="-32.66 150.16 92.44 164.3 92.44 166.69 -32.66 152.55 -32.66 150.16"/>
      <polygon class="cls-23" points="-32.66 147.78 92.44 161.91 92.44 164.3 -32.66 150.16 -32.66 147.78"/>
      <polygon class="cls-94" points="-32.66 145.39 92.44 159.53 92.44 161.91 -32.66 147.78 -32.66 145.39"/>
      <polygon class="cls-94" points="-32.66 143 92.44 157.14 92.44 159.53 -32.66 145.39 -32.66 143"/>
      <polygon class="cls-99" points="-32.66 140.62 92.44 154.75 92.44 157.14 -32.66 143 -32.66 140.62"/>
      <polygon class="cls-106" points="-32.66 138.23 92.44 152.37 92.44 154.75 -32.66 140.62 -32.66 138.23"/>
      <polygon class="cls-2" points="-32.66 135.84 92.44 149.98 92.44 152.37 -32.66 138.23 -32.66 135.84"/>
      <polygon class="cls-83" points="-32.66 133.46 92.44 147.59 92.44 149.98 -32.66 135.84 -32.66 133.46"/>
      <polygon class="cls-53" points="-32.66 131.07 92.44 145.21 92.44 147.59 -32.66 133.46 -32.66 131.07"/>
      <polygon class="cls-88" points="-32.66 128.68 92.44 142.82 92.44 145.21 -32.66 131.07 -32.66 128.68"/>
      <polygon class="cls-48" points="-32.66 126.3 92.44 140.44 92.44 142.82 -32.66 128.68 -32.66 126.3"/>
      <polygon class="cls-42" points="-32.66 123.91 92.44 138.05 92.44 140.44 -32.66 126.3 -32.66 123.91"/>
      <polygon class="cls-98" points="-32.66 121.53 92.44 135.66 92.44 138.05 -32.66 123.91 -32.66 121.53"/>
      <polygon class="cls-61" points="-32.66 119.14 92.44 133.28 92.44 135.66 -32.66 121.53 -32.66 119.14"/>
      <polygon class="cls-16" points="-32.66 116.75 92.44 130.89 92.44 133.28 -32.66 119.14 -32.66 116.75"/>
      <polygon class="cls-69" points="-32.66 114.37 92.44 128.5 92.44 130.89 -32.66 116.75 -32.66 114.37"/>
      <polygon class="cls-55" points="-32.66 111.98 92.44 126.12 92.44 128.5 -32.66 114.37 -32.66 111.98"/>
      <polygon class="cls-5" points="-32.66 109.59 92.44 123.73 92.44 126.12 -32.66 111.98 -32.66 109.59"/>
      <polygon class="cls-100" points="-32.66 107.21 92.44 121.34 92.44 123.73 -32.66 109.59 -32.66 107.21"/>
      <polygon class="cls-6" points="-32.66 104.82 92.44 118.96 92.44 121.34 -32.66 107.21 -32.66 104.82"/>
      <polygon class="cls-41" points="-32.66 102.43 92.44 116.57 92.44 118.96 -32.66 104.82 -32.66 102.43"/>
      <polygon class="cls-8" points="-32.66 100.05 92.44 114.19 92.44 116.57 -32.66 102.43 -32.66 100.05"/>
      <polygon class="cls-8" points="-32.66 97.66 92.44 111.8 92.44 114.19 -32.66 100.05 -32.66 97.66"/>
      <polygon class="cls-31" points="-32.66 95.28 92.44 109.41 92.44 111.8 -32.66 97.66 -32.66 95.28"/>
      <polygon class="cls-37" points="-32.66 92.89 92.44 107.03 92.44 109.41 -32.66 95.28 -32.66 92.89"/>
      <polygon class="cls-37" points="-32.66 90.5 92.44 104.64 92.44 107.03 -32.66 92.89 -32.66 90.5"/>
      <polygon class="cls-65" points="-32.66 88.12 92.44 102.25 92.44 104.64 -32.66 90.5 -32.66 88.12"/>
      <polygon class="cls-65" points="-32.66 85.73 92.44 99.87 92.44 102.25 -32.66 88.12 -32.66 85.73"/>
      <polygon class="cls-62" points="-32.66 83.34 92.44 97.48 92.44 99.87 -32.66 85.73 -32.66 83.34"/>
      <polygon class="cls-76" points="-32.66 80.96 92.44 95.09 92.44 97.48 -32.66 83.34 -32.66 80.96"/>
      <polygon class="cls-33" points="-32.66 78.57 92.44 92.71 92.44 95.09 -32.66 80.96 -32.66 78.57"/>
      <polygon class="cls-56" points="-32.66 76.18 92.44 90.32 92.44 92.71 -32.66 78.57 -32.66 76.18"/>
      <polygon class="cls-56" points="-32.66 73.8 92.44 87.94 92.44 90.32 -32.66 76.18 -32.66 73.8"/>
      <polygon class="cls-68" points="-32.66 71.41 92.44 85.55 92.44 87.94 -32.66 73.8 -32.66 71.41"/>
      <polygon class="cls-68" points="-32.66 69.03 92.44 83.16 92.44 85.55 -32.66 71.41 -32.66 69.03"/>
      <polygon class="cls-95" points="-32.66 66.64 92.44 80.78 92.44 83.16 -32.66 69.03 -32.66 66.64"/>
      <polygon class="cls-40" points="-32.66 64.25 92.44 78.39 92.44 80.78 -32.66 66.64 -32.66 64.25"/>
      <polygon class="cls-30" points="-32.66 61.87 92.44 76 92.44 78.39 -32.66 64.25 -32.66 61.87"/>
      <polygon class="cls-30" points="-32.66 59.48 92.44 73.62 92.44 76 -32.66 61.87 -32.66 59.48"/>
      <polygon class="cls-32" points="-32.66 57.09 92.44 71.23 92.44 73.62 -32.66 59.48 -32.66 57.09"/>
      <polygon class="cls-63" points="-32.66 54.71 92.44 68.84 92.44 71.23 -32.66 57.09 -32.66 54.71"/>
      <polygon class="cls-63" points="-32.66 52.32 92.44 66.46 92.44 68.84 -32.66 54.71 -32.66 52.32"/>
      <polygon class="cls-87" points="-32.66 49.93 92.44 64.07 92.44 66.46 -32.66 52.32 -32.66 49.93"/>
      <polygon class="cls-3" points="-32.66 47.55 92.44 61.69 92.44 64.07 -32.66 49.93 -32.66 47.55"/>
      <polygon class="cls-59" points="-32.66 45.16 92.44 59.3 92.44 61.69 -32.66 47.55 -32.66 45.16"/>
      <polygon class="cls-59" points="-32.66 42.77 92.44 56.91 92.44 59.3 -32.66 45.16 -32.66 42.77"/>
      <polygon class="cls-34" points="-32.66 40.39 92.44 54.53 92.44 56.91 -32.66 42.77 -32.66 40.39"/>
      <polygon class="cls-93" points="-32.66 38 92.44 52.14 92.44 54.53 -32.66 40.39 -32.66 38"/>
      <polygon class="cls-89" points="-32.66 35.62 92.44 49.75 92.44 52.14 -32.66 38 -32.66 35.62"/>
      <polygon class="cls-89" points="-32.66 33.23 92.44 47.37 92.44 49.75 -32.66 35.62 -32.66 33.23"/>
      <polygon class="cls-24" points="-32.66 30.84 92.44 44.98 92.44 47.37 -32.66 33.23 -32.66 30.84"/>
      <polygon class="cls-77" points="-32.66 28.46 92.44 42.59 92.44 44.98 -32.66 30.84 -32.66 28.46"/>
      <polygon class="cls-109" points="-32.66 26.07 92.44 40.21 92.44 42.59 -32.66 28.46 -32.66 26.07"/>
      <polygon class="cls-109" points="-32.66 23.68 92.44 37.82 92.44 40.21 -32.66 26.07 -32.66 23.68"/>
      <polygon class="cls-80" points="-32.66 21.3 92.44 35.43 92.44 37.82 -32.66 23.68 -32.66 21.3"/>
      <polygon class="cls-86" points="-32.66 18.91 92.44 33.05 92.44 35.43 -32.66 21.3 -32.66 18.91"/>
      <polygon class="cls-78" points="-32.66 16.52 92.44 30.66 92.44 33.05 -32.66 18.91 -32.66 16.52"/>
      <polygon class="cls-78" points="-32.66 14.14 92.44 28.28 92.44 30.66 -32.66 16.52 -32.66 14.14"/>
      <polygon class="cls-78" points="-32.66 11.75 92.44 25.89 92.44 28.28 -32.66 14.14 -32.66 11.75"/>
      <polygon class="cls-79" points="-32.66 9.37 92.44 23.5 92.44 25.89 -32.66 11.75 -32.66 9.37"/>
      <polygon class="cls-79" points="-32.66 6.98 92.44 21.12 92.44 23.5 -32.66 9.37 -32.66 6.98"/>
      <polygon class="cls-44" points="-32.66 4.59 92.44 18.73 92.44 21.12 -32.66 6.98 -32.66 4.59"/>
      <polygon class="cls-44" points="-32.66 2.21 92.44 16.34 92.44 18.73 -32.66 4.59 -32.66 2.21"/>
      <polygon class="cls-26" points="-29.29 .2 92.44 13.96 92.44 16.34 -32.66 2.21 -32.66 .2 -29.29 .2"/>
      <polygon class="cls-81" points="-8.17 .2 92.44 11.57 92.44 13.96 -29.29 .2 -8.17 .2"/>
      <polygon class="cls-13" points="12.94 .2 92.44 9.18 92.44 11.57 -8.17 .2 12.94 .2"/>
      <polygon class="cls-74" points="34.06 .2 92.44 6.8 92.44 9.18 12.94 .2 34.06 .2"/>
      <polygon class="cls-74" points="55.18 .2 92.44 4.41 92.44 6.8 34.06 .2 55.18 .2"/>
      <polygon class="cls-17" points="76.29 .2 92.44 2.03 92.44 4.41 55.18 .2 76.29 .2"/>
      <polygon class="cls-73" points="92.44 2.03 76.29 .2 92.44 .2 92.44 2.03"/>
    </g>
  </g>
  <g>
    <path class="cls-107" d="M534.06,153.2c0,47.01,19.63,85.64,58.34,114.81,33.61,25.47,76.06,38.39,126.18,38.39s91.79-12.79,125.4-37.99c38.73-29.17,58.36-67.94,58.36-115.2s-19.76-84.75-58.71-114.43C810.01,13.05,767.94,0,718.58,0s-91.3,13.04-125.41,38.76c-39.23,29.68-59.12,68.18-59.12,114.44M628.66,83.11c22.91-18.69,53.17-28.17,89.92-28.17,33.59,0,62,8.33,84.46,24.75,25.63,18.74,38.62,43.47,38.62,73.51s-11.1,52.69-32.99,70.67c-22.26,18.29-52.58,27.57-90.1,27.57s-68.31-9.22-90.7-27.41c-22-17.86-33.15-41.69-33.15-70.83s11.42-51.73,33.93-70.09"/>
    <path class="cls-107" d="M1213.81,6.87c-.16,0-.3.09-.38.22.08-.14.22-.22.38-.22Z"/>
    <path class="cls-107" d="M1228.63,8.41c-8.72,0-16.73,4.78-20.86,12.46l-111.89,207.71c-.34.64-1,1.03-1.73,1.03s-1.39-.39-1.73-1.03l-111.88-207.71c-4.13-7.67-12.14-12.46-20.86-12.46h-34.56c-7.76,0-12.71,8.29-9.03,15.13l140.51,260.89c4.5,8.36,13.22,13.57,22.71,13.57h29.65c9.49,0,18.21-5.21,22.71-13.57L1272.23,23.53c3.68-6.83-1.27-15.13-9.04-15.13h-34.57Z"/>
    <path class="cls-107" d="M1607.52,243.8h-226.6c-1.09,0-1.97-.88-1.97-1.96v-64.94c0-1.09.88-1.97,1.97-1.97h143.01c9.41,0,17.05-7.63,17.05-17.05v-20.09c0-9.41-7.63-17.05-17.05-17.05h-143.01c-1.09,0-1.97-.88-1.97-1.97v-54.23c0-1.09.88-1.96,1.97-1.96h227.39c8.4,0,15.21-6.81,15.2-15.21,0-7.43,0-16.34,0-23.77.01-8.4-6.8-15.21-15.19-15.21h-271.08c-9.41,0-17.05,7.63-17.05,17.05v255.49c0,9.41,7.63,17.05,17.05,17.05h270.28c8.4,0,15.2-6.81,15.2-15.21,0-7.43,0-16.34,0-23.77,0-8.4-6.8-15.21-15.2-15.21"/>
    <path class="cls-107" d="M1932.44,236.08c.74,0,1.41.41,1.75,1.07l24.75,48.03c4.05,7.87,12.15,12.81,21,12.81h30.05c9.23,0,15.15-9.82,10.83-17.98l-134.31-253.9c-5.76-10.89-17.07-17.69-29.38-17.69h-25.44c-12.32,0-23.62,6.81-29.38,17.69l-134.31,253.9c-4.32,8.16,1.6,17.98,10.83,17.98h30.04c8.85,0,16.95-4.94,21-12.81l24.75-48.03c.34-.65,1.01-1.07,1.75-1.07h176.08ZM1785.78,179.01l57.28-107.62c.34-.64,1.01-1.04,1.73-1.04s1.4.4,1.74,1.05l56.58,107.62c.32.61.3,1.34-.06,1.93s-.99.95-1.68.95h-113.86c-.7,0-1.33-.36-1.69-.95-.36-.6-.38-1.32-.05-1.94"/>
    <path class="cls-107" d="M1811,6.87c-.16,0-.31.09-.38.23.07-.14.22-.23.38-.23Z"/>
    <path class="cls-107" d="M1844.79,71.89c-.15,0-.29.08-.38.23.08-.15.23-.23.38-.23"/>
  </g>
  <g class="cls-52">
    <g class="cls-51">
      <polygon class="cls-82" points="93.91 300.26 434.87 338.79 93.91 338.79 93.91 300.26"/>
      <polygon class="cls-82" points="93.91 293.47 494.92 338.79 434.87 338.79 93.91 300.26 93.91 293.47"/>
      <polygon class="cls-82" points="93.91 290.83 510.77 337.94 510.77 338.79 494.92 338.79 93.91 293.47 93.91 290.83"/>
      <polygon class="cls-64" points="93.91 288.19 510.77 335.3 510.77 337.94 93.91 290.83 93.91 288.19"/>
      <polygon class="cls-35" points="93.91 285.54 510.77 332.66 510.77 335.3 93.91 288.19 93.91 285.54"/>
      <polygon class="cls-105" points="93.91 282.9 510.77 330.01 510.77 332.66 93.91 285.54 93.91 282.9"/>
      <polygon class="cls-102" points="93.91 280.26 510.77 327.37 510.77 330.01 93.91 282.9 93.91 280.26"/>
      <polygon class="cls-72" points="93.91 277.62 510.77 324.73 510.77 327.37 93.91 280.26 93.91 277.62"/>
      <polygon class="cls-36" points="93.91 274.97 510.77 322.08 510.77 324.73 93.91 277.62 93.91 274.97"/>
      <polygon class="cls-97" points="93.91 272.33 510.77 319.44 510.77 322.08 93.91 274.97 93.91 272.33"/>
      <polygon class="cls-58" points="93.91 269.69 510.77 316.8 510.77 319.44 93.91 272.33 93.91 269.69"/>
      <polygon class="cls-96" points="93.91 267.04 510.77 314.15 510.77 316.8 93.91 269.69 93.91 267.04"/>
      <polygon class="cls-71" points="93.91 264.4 510.77 311.51 510.77 314.15 93.91 267.04 93.91 264.4"/>
      <polygon class="cls-46" points="93.91 261.76 510.77 308.87 510.77 311.51 93.91 264.4 93.91 261.76"/>
      <polygon class="cls-45" points="93.91 259.11 510.77 306.22 510.77 308.87 93.91 261.76 93.91 259.11"/>
      <polygon class="cls-38" points="93.91 256.47 510.77 303.58 510.77 306.22 93.91 259.11 93.91 256.47"/>
      <polygon class="cls-22" points="93.91 253.83 510.77 300.94 510.77 303.58 93.91 256.47 93.91 253.83"/>
      <polygon class="cls-7" points="93.91 251.18 510.77 298.29 510.77 300.94 93.91 253.83 93.91 251.18"/>
      <polygon class="cls-47" points="93.91 248.54 510.77 295.65 510.77 298.29 93.91 251.18 93.91 248.54"/>
      <polygon class="cls-43" points="93.91 245.9 510.77 293.01 510.77 295.65 93.91 248.54 93.91 245.9"/>
      <polygon class="cls-25" points="93.91 243.25 510.77 290.36 510.77 293.01 93.91 245.9 93.91 243.25"/>
      <polygon class="cls-92" points="93.91 240.61 510.77 287.72 510.77 290.36 93.91 243.25 93.91 240.61"/>
      <polygon class="cls-10" points="93.91 237.97 510.77 285.08 510.77 287.72 93.91 240.61 93.91 237.97"/>
      <polygon class="cls-85" points="93.91 235.32 510.77 282.43 510.77 285.08 93.91 237.97 93.91 235.32"/>
      <polygon class="cls-85" points="93.91 232.68 510.77 279.79 510.77 282.43 93.91 235.32 93.91 232.68"/>
      <polygon class="cls-27" points="93.91 230.04 510.77 277.15 510.77 279.79 93.91 232.68 93.91 230.04"/>
      <polygon class="cls-60" points="93.91 227.39 510.77 274.5 510.77 277.15 93.91 230.04 93.91 227.39"/>
      <polygon class="cls-4" points="93.91 224.75 510.77 271.86 510.77 274.5 93.91 227.39 93.91 224.75"/>
      <polygon class="cls-4" points="93.91 222.11 510.77 269.22 510.77 271.86 93.91 224.75 93.91 222.11"/>
      <polygon class="cls-84" points="93.91 219.46 510.77 266.57 510.77 269.22 93.91 222.11 93.91 219.46"/>
      <polygon class="cls-91" points="93.91 216.82 510.77 263.93 510.77 266.57 93.91 219.46 93.91 216.82"/>
      <polygon class="cls-91" points="93.91 214.18 510.77 261.29 510.77 263.93 93.91 216.82 93.91 214.18"/>
      <polygon class="cls-101" points="93.91 211.53 510.77 258.64 510.77 261.29 93.91 214.18 93.91 211.53"/>
      <polygon class="cls-11" points="93.91 208.89 510.77 256 510.77 258.64 93.91 211.53 93.91 208.89"/>
      <polygon class="cls-28" points="93.91 206.25 510.77 253.36 510.77 256 93.91 208.89 93.91 206.25"/>
      <polygon class="cls-28" points="93.91 203.6 510.77 250.71 510.77 253.36 93.91 206.25 93.91 203.6"/>
      <polygon class="cls-70" points="93.91 200.96 510.77 248.07 510.77 250.71 93.91 203.6 93.91 200.96"/>
      <polygon class="cls-49" points="93.91 198.32 510.77 245.43 510.77 248.07 93.91 200.96 93.91 198.32"/>
      <polygon class="cls-90" points="93.91 195.67 510.77 242.79 510.77 245.43 93.91 198.32 93.91 195.67"/>
      <polygon class="cls-90" points="93.91 193.03 510.77 240.14 510.77 242.79 93.91 195.67 93.91 193.03"/>
      <polygon class="cls-12" points="93.91 190.39 510.77 237.5 510.77 240.14 93.91 193.03 93.91 190.39"/>
      <polygon class="cls-21" points="93.91 187.74 510.77 234.86 510.77 237.5 93.91 190.39 93.91 187.74"/>
      <polygon class="cls-21" points="93.91 185.1 510.77 232.21 510.77 234.86 93.91 187.74 93.91 185.1"/>
      <polygon class="cls-66" points="93.91 182.46 510.77 229.57 510.77 232.21 93.91 185.1 93.91 182.46"/>
      <polygon class="cls-9" points="93.91 179.81 510.77 226.93 510.77 229.57 93.91 182.46 93.91 179.81"/>
      <polygon class="cls-103" points="93.91 177.17 510.77 224.28 510.77 226.93 93.91 179.81 93.91 177.17"/>
      <polygon class="cls-103" points="93.91 174.53 510.77 221.64 510.77 224.28 93.91 177.17 93.91 174.53"/>
      <polygon class="cls-75" points="93.91 171.88 510.77 219 510.77 221.64 93.91 174.53 93.91 171.88"/>
      <polygon class="cls-57" points="93.91 169.24 510.77 216.35 510.77 219 93.91 171.88 93.91 169.24"/>
      <polygon class="cls-57" points="93.91 166.6 510.77 213.71 510.77 216.35 93.91 169.24 93.91 166.6"/>
      <polygon class="cls-18" points="93.91 163.95 510.77 211.07 510.77 213.71 93.91 166.6 93.91 163.95"/>
      <polygon class="cls-20" points="93.91 161.31 510.77 208.42 510.77 211.07 93.91 163.95 93.91 161.31"/>
      <polygon class="cls-39" points="93.91 158.67 510.77 205.78 510.77 208.42 93.91 161.31 93.91 158.67"/>
      <polygon class="cls-19" points="93.91 156.02 510.77 203.14 510.77 205.78 93.91 158.67 93.91 156.02"/>
      <polygon class="cls-15" points="93.91 153.38 510.77 200.49 510.77 203.14 93.91 156.02 93.91 153.38"/>
      <polygon class="cls-67" points="93.91 150.74 510.77 197.85 510.77 200.49 93.91 153.38 93.91 150.74"/>
      <polygon class="cls-108" points="93.91 148.1 510.77 195.21 510.77 197.85 93.91 150.74 93.91 148.1"/>
      <polygon class="cls-29" points="93.91 145.45 510.77 192.56 510.77 195.21 93.91 148.1 93.91 145.45"/>
      <polygon class="cls-29" points="93.91 142.81 510.77 189.92 510.77 192.56 93.91 145.45 93.91 142.81"/>
      <polygon class="cls-54" points="93.91 140.17 510.77 187.28 510.77 189.92 93.91 142.81 93.91 140.17"/>
      <polygon class="cls-14" points="93.91 137.52 510.77 184.63 510.77 187.28 93.91 140.17 93.91 137.52"/>
      <polygon class="cls-14" points="93.91 134.88 510.77 181.99 510.77 184.63 93.91 137.52 93.91 134.88"/>
      <polygon class="cls-23" points="93.91 132.24 510.77 179.35 510.77 181.99 93.91 134.88 93.91 132.24"/>
      <polygon class="cls-94" points="93.91 129.59 510.77 176.7 510.77 179.35 93.91 132.24 93.91 129.59"/>
      <polygon class="cls-94" points="93.91 126.95 510.77 174.06 510.77 176.7 93.91 129.59 93.91 126.95"/>
      <polygon class="cls-99" points="93.91 124.31 510.77 171.42 510.77 174.06 93.91 126.95 93.91 124.31"/>
      <polygon class="cls-106" points="93.91 121.66 510.77 168.77 510.77 171.42 93.91 124.31 93.91 121.66"/>
      <polygon class="cls-2" points="93.91 119.02 510.77 166.13 510.77 168.77 93.91 121.66 93.91 119.02"/>
      <polygon class="cls-83" points="93.91 116.38 510.77 163.49 510.77 166.13 93.91 119.02 93.91 116.38"/>
      <polygon class="cls-53" points="93.91 113.73 510.77 160.84 510.77 163.49 93.91 116.38 93.91 113.73"/>
      <polygon class="cls-88" points="93.91 111.09 510.77 158.2 510.77 160.84 93.91 113.73 93.91 111.09"/>
      <polygon class="cls-48" points="93.91 108.45 510.77 155.56 510.77 158.2 93.91 111.09 93.91 108.45"/>
      <polygon class="cls-42" points="93.91 105.8 510.77 152.91 510.77 155.56 93.91 108.45 93.91 105.8"/>
      <polygon class="cls-98" points="93.91 103.16 510.77 150.27 510.77 152.91 93.91 105.8 93.91 103.16"/>
      <polygon class="cls-61" points="93.91 100.52 510.77 147.63 510.77 150.27 93.91 103.16 93.91 100.52"/>
      <polygon class="cls-16" points="93.91 97.87 510.77 144.98 510.77 147.63 93.91 100.52 93.91 97.87"/>
      <polygon class="cls-69" points="93.91 95.23 510.77 142.34 510.77 144.98 93.91 97.87 93.91 95.23"/>
      <polygon class="cls-55" points="93.91 92.59 510.77 139.7 510.77 142.34 93.91 95.23 93.91 92.59"/>
      <polygon class="cls-5" points="93.91 89.94 510.77 137.05 510.77 139.7 93.91 92.59 93.91 89.94"/>
      <polygon class="cls-100" points="93.91 87.3 510.77 134.41 510.77 137.05 93.91 89.94 93.91 87.3"/>
      <polygon class="cls-6" points="93.91 84.66 510.77 131.77 510.77 134.41 93.91 87.3 93.91 84.66"/>
      <polygon class="cls-41" points="93.91 82.01 510.77 129.12 510.77 131.77 93.91 84.66 93.91 82.01"/>
      <polygon class="cls-8" points="93.91 79.37 510.77 126.48 510.77 129.12 93.91 82.01 93.91 79.37"/>
      <polygon class="cls-8" points="93.91 76.73 510.77 123.84 510.77 126.48 93.91 79.37 93.91 76.73"/>
      <polygon class="cls-31" points="93.91 74.08 510.77 121.19 510.77 123.84 93.91 76.73 93.91 74.08"/>
      <polygon class="cls-37" points="93.91 71.44 510.77 118.55 510.77 121.19 93.91 74.08 93.91 71.44"/>
      <polygon class="cls-37" points="93.91 68.8 510.77 115.91 510.77 118.55 93.91 71.44 93.91 68.8"/>
      <polygon class="cls-65" points="93.91 66.15 510.77 113.27 510.77 115.91 93.91 68.8 93.91 66.15"/>
      <polygon class="cls-65" points="93.91 63.51 510.77 110.62 510.77 113.27 93.91 66.15 93.91 63.51"/>
      <polygon class="cls-62" points="93.91 60.87 510.77 107.98 510.77 110.62 93.91 63.51 93.91 60.87"/>
      <polygon class="cls-76" points="93.91 58.22 510.77 105.34 510.77 107.98 93.91 60.87 93.91 58.22"/>
      <polygon class="cls-33" points="93.91 55.58 510.77 102.69 510.77 105.34 93.91 58.22 93.91 55.58"/>
      <polygon class="cls-56" points="93.91 52.94 510.77 100.05 510.77 102.69 93.91 55.58 93.91 52.94"/>
      <polygon class="cls-56" points="93.91 50.29 510.77 97.41 510.77 100.05 93.91 52.94 93.91 50.29"/>
      <polygon class="cls-68" points="93.91 47.65 510.77 94.76 510.77 97.41 93.91 50.29 93.91 47.65"/>
      <polygon class="cls-68" points="93.91 45.01 510.77 92.12 510.77 94.76 93.91 47.65 93.91 45.01"/>
      <polygon class="cls-95" points="93.91 42.36 510.77 89.48 510.77 92.12 93.91 45.01 93.91 42.36"/>
      <polygon class="cls-40" points="93.91 39.72 510.77 86.83 510.77 89.48 93.91 42.36 93.91 39.72"/>
      <polygon class="cls-30" points="93.91 37.08 510.77 84.19 510.77 86.83 93.91 39.72 93.91 37.08"/>
      <polygon class="cls-30" points="93.91 34.43 510.77 81.55 510.77 84.19 93.91 37.08 93.91 34.43"/>
      <polygon class="cls-32" points="93.91 31.79 510.77 78.9 510.77 81.55 93.91 34.43 93.91 31.79"/>
      <polygon class="cls-63" points="93.91 29.15 510.77 76.26 510.77 78.9 93.91 31.79 93.91 29.15"/>
      <polygon class="cls-63" points="93.91 26.5 510.77 73.62 510.77 76.26 93.91 29.15 93.91 26.5"/>
      <polygon class="cls-87" points="93.91 23.86 510.77 70.97 510.77 73.62 93.91 26.5 93.91 23.86"/>
      <polygon class="cls-3" points="93.91 21.22 510.77 68.33 510.77 70.97 93.91 23.86 93.91 21.22"/>
      <polygon class="cls-59" points="93.91 18.58 510.77 65.69 510.77 68.33 93.91 21.22 93.91 18.58"/>
      <polygon class="cls-59" points="93.91 15.93 510.77 63.04 510.77 65.69 93.91 18.58 93.91 15.93"/>
      <polygon class="cls-34" points="93.91 13.29 510.77 60.4 510.77 63.04 93.91 15.93 93.91 13.29"/>
      <polygon class="cls-93" points="93.91 10.65 510.77 57.76 510.77 60.4 93.91 13.29 93.91 10.65"/>
      <polygon class="cls-89" points="93.91 8 510.77 55.11 510.77 57.76 93.91 10.65 93.91 8"/>
      <polygon class="cls-89" points="93.91 5.36 510.77 52.47 510.77 55.11 93.91 8 93.91 5.36"/>
      <polygon class="cls-24" points="93.91 2.72 510.77 49.83 510.77 52.47 93.91 5.36 93.91 2.72"/>
      <polygon class="cls-77" points="93.91 .07 510.77 47.18 510.77 49.83 93.91 2.72 93.91 .07"/>
      <polygon class="cls-109" points="93.91 -2.57 510.77 44.54 510.77 47.18 93.91 .07 93.91 -2.57"/>
      <polygon class="cls-109" points="93.91 -5.21 510.77 41.9 510.77 44.54 93.91 -2.57 93.91 -5.21"/>
      <polygon class="cls-80" points="93.91 -7.86 510.77 39.25 510.77 41.9 93.91 -5.21 93.91 -7.86"/>
      <polygon class="cls-86" points="93.91 -10.5 510.77 36.61 510.77 39.25 93.91 -7.86 93.91 -10.5"/>
      <polygon class="cls-78" points="93.91 -13.14 510.77 33.97 510.77 36.61 93.91 -10.5 93.91 -13.14"/>
      <polygon class="cls-78" points="93.91 -15.79 510.77 31.32 510.77 33.97 93.91 -13.14 93.91 -15.79"/>
      <polygon class="cls-78" points="93.91 -18.43 510.77 28.68 510.77 31.32 93.91 -15.79 93.91 -18.43"/>
      <polygon class="cls-79" points="93.91 -21.07 510.77 26.04 510.77 28.68 93.91 -18.43 93.91 -21.07"/>
      <polygon class="cls-79" points="93.91 -23.72 510.77 23.39 510.77 26.04 93.91 -21.07 93.91 -23.72"/>
      <polygon class="cls-44" points="93.91 -26.36 510.77 20.75 510.77 23.39 93.91 -23.72 93.91 -26.36"/>
      <polygon class="cls-44" points="93.91 -29 510.77 18.11 510.77 20.75 93.91 -26.36 93.91 -29"/>
      <polygon class="cls-26" points="100.89 -30.86 510.77 15.46 510.77 18.11 93.91 -29 93.91 -30.86 100.89 -30.86"/>
      <polygon class="cls-81" points="124.28 -30.86 510.77 12.82 510.77 15.46 100.89 -30.86 124.28 -30.86"/>
      <polygon class="cls-13" points="147.67 -30.86 510.77 10.18 510.77 12.82 124.28 -30.86 147.67 -30.86"/>
      <polygon class="cls-74" points="171.06 -30.86 510.77 7.53 510.77 10.18 147.67 -30.86 171.06 -30.86"/>
      <polygon class="cls-74" points="194.44 -30.86 510.77 4.89 510.77 7.53 171.06 -30.86 194.44 -30.86"/>
      <polygon class="cls-17" points="217.83 -30.86 510.77 2.25 510.77 4.89 194.44 -30.86 217.83 -30.86"/>
      <polygon class="cls-73" points="241.22 -30.86 510.77 -.4 510.77 2.25 217.83 -30.86 241.22 -30.86"/>
    </g>
  </g>
</svg>
